<?xml version="1.0" encoding="utf-8" standalone="no"?>
<!DOCTYPE svg PUBLIC "-//W3C//DTD SVG 1.1//EN"
  "http://www.w3.org/Graphics/SVG/1.1/DTD/svg11.dtd">
<!-- Created with matplotlib (http://matplotlib.org/) -->
<svg height="648pt" version="1.1" viewBox="0 0 1152 648" width="1152pt" xmlns="http://www.w3.org/2000/svg" xmlns:xlink="http://www.w3.org/1999/xlink">
 <defs>
  <style type="text/css">
*{stroke-linecap:butt;stroke-linejoin:round;}
  </style>
 </defs>
 <g id="figure_1">
  <g id="patch_1">
   <path d="
M0 648
L1152 648
L1152 0
L0 0
z
" style="fill:#ffffff;"/>
  </g>
  <g id="axes_1">
   <g id="patch_2">
    <path d="
M191.04 602.64
L1130.32 602.64
L1130.32 28.76
L191.04 28.76
z
" style="fill:#ffffff;"/>
   </g>
   <g id="patch_3">
    <path clip-path="url(#p59af2708ec)" d="
M191.04 43.107
L1034.18 43.107
L1034.18 157.883
L191.04 157.883
z
" style="fill:#0000ff;opacity:0.4;stroke:#000000;"/>
   </g>
   <g id="patch_4">
    <path clip-path="url(#p59af2708ec)" d="
M191.04 186.577
L462.757 186.577
L462.757 301.353
L191.04 301.353
z
" style="fill:#0000ff;opacity:0.4;stroke:#000000;"/>
   </g>
   <g id="patch_5">
    <path clip-path="url(#p59af2708ec)" d="
M191.04 330.047
L1038.21 330.047
L1038.21 444.823
L191.04 444.823
z
" style="fill:#0000ff;opacity:0.4;stroke:#000000;"/>
   </g>
   <g id="patch_6">
    <path clip-path="url(#p59af2708ec)" d="
M191.04 473.517
L456.525 473.517
L456.525 588.293
L191.04 588.293
z
" style="fill:#0000ff;opacity:0.4;stroke:#000000;"/>
   </g>
   <g id="LineCollection_1">
    <defs>
     <path d="
M1024.43 -547.505
L1043.93 -547.505" id="C0_0_5a8f381c33"/>
     <path d="
M461.018 -404.035
L464.496 -404.035" id="C0_1_bc0ebfe0dc"/>
     <path d="
M1035.94 -260.565
L1040.48 -260.565" id="C0_2_60784ba7d9"/>
     <path d="
M455.673 -117.095
L457.378 -117.095" id="C0_3_423be1b402"/>
    </defs>
    <g clip-path="url(#p59af2708ec)">
     <use style="fill:none;stroke:#ff0000;" x="0.0" xlink:href="#C0_0_5a8f381c33" y="648.0"/>
    </g>
    <g clip-path="url(#p59af2708ec)">
     <use style="fill:none;stroke:#ff0000;" x="0.0" xlink:href="#C0_1_bc0ebfe0dc" y="648.0"/>
    </g>
    <g clip-path="url(#p59af2708ec)">
     <use style="fill:none;stroke:#ff0000;" x="0.0" xlink:href="#C0_2_60784ba7d9" y="648.0"/>
    </g>
    <g clip-path="url(#p59af2708ec)">
     <use style="fill:none;stroke:#ff0000;" x="0.0" xlink:href="#C0_3_423be1b402" y="648.0"/>
    </g>
   </g>
   <g id="line2d_1">
    <defs>
     <path d="
M0 3
L0 -3" id="m3a7414fe3c" style="stroke:#ff0000;stroke-width:0.5;"/>
    </defs>
    <g clip-path="url(#p59af2708ec)">
     <use style="fill:#ff0000;stroke:#ff0000;stroke-width:0.5;" x="1024.42889607" xlink:href="#m3a7414fe3c" y="100.495"/>
     <use style="fill:#ff0000;stroke:#ff0000;stroke-width:0.5;" x="461.01770876" xlink:href="#m3a7414fe3c" y="243.965"/>
     <use style="fill:#ff0000;stroke:#ff0000;stroke-width:0.5;" x="1035.93906062" xlink:href="#m3a7414fe3c" y="387.435"/>
     <use style="fill:#ff0000;stroke:#ff0000;stroke-width:0.5;" x="455.672546042" xlink:href="#m3a7414fe3c" y="530.905"/>
    </g>
   </g>
   <g id="line2d_2">
    <g clip-path="url(#p59af2708ec)">
     <use style="fill:#ff0000;stroke:#ff0000;stroke-width:0.5;" x="1043.93389072" xlink:href="#m3a7414fe3c" y="100.495"/>
     <use style="fill:#ff0000;stroke:#ff0000;stroke-width:0.5;" x="464.495520832" xlink:href="#m3a7414fe3c" y="243.965"/>
     <use style="fill:#ff0000;stroke:#ff0000;stroke-width:0.5;" x="1040.47893412" xlink:href="#m3a7414fe3c" y="387.435"/>
     <use style="fill:#ff0000;stroke:#ff0000;stroke-width:0.5;" x="457.377607028" xlink:href="#m3a7414fe3c" y="530.905"/>
    </g>
   </g>
   <g id="matplotlib.axis_1">
    <g id="xtick_1">
     <g id="line2d_3">
      <defs>
       <path d="
M0 0
L0 -4" id="m93b0483c22" style="stroke:#000000;stroke-width:0.5;"/>
      </defs>
      <g>
       <use style="stroke:#000000;stroke-width:0.5;" x="191.0396875" xlink:href="#m93b0483c22" y="602.64"/>
      </g>
     </g>
     <g id="line2d_4">
      <defs>
       <path d="
M0 0
L0 4" id="m741efc42ff" style="stroke:#000000;stroke-width:0.5;"/>
      </defs>
      <g>
       <use style="stroke:#000000;stroke-width:0.5;" x="191.0396875" xlink:href="#m741efc42ff" y="28.76"/>
      </g>
     </g>
     <g id="text_1">
      <!-- 0.0 -->
      <defs>
       <path d="
M31.7812 66.4062
Q24.1719 66.4062 20.3281 58.9062
Q16.5 51.4219 16.5 36.375
Q16.5 21.3906 20.3281 13.8906
Q24.1719 6.39062 31.7812 6.39062
Q39.4531 6.39062 43.2812 13.8906
Q47.125 21.3906 47.125 36.375
Q47.125 51.4219 43.2812 58.9062
Q39.4531 66.4062 31.7812 66.4062
M31.7812 74.2188
Q44.0469 74.2188 50.5156 64.5156
Q56.9844 54.8281 56.9844 36.375
Q56.9844 17.9688 50.5156 8.26562
Q44.0469 -1.42188 31.7812 -1.42188
Q19.5312 -1.42188 13.0625 8.26562
Q6.59375 17.9688 6.59375 36.375
Q6.59375 54.8281 13.0625 64.5156
Q19.5312 74.2188 31.7812 74.2188" id="BitstreamVeraSans-Roman-30"/>
       <path d="
M10.6875 12.4062
L21 12.4062
L21 0
L10.6875 0
z
" id="BitstreamVeraSans-Roman-2e"/>
      </defs>
      <g transform="translate(182.291875 615.758125)scale(0.12 -0.12)">
       <use xlink:href="#BitstreamVeraSans-Roman-30"/>
       <use x="63.623046875" xlink:href="#BitstreamVeraSans-Roman-2e"/>
       <use x="95.41015625" xlink:href="#BitstreamVeraSans-Roman-30"/>
      </g>
     </g>
    </g>
    <g id="xtick_2">
     <g id="line2d_5">
      <g>
       <use style="stroke:#000000;stroke-width:0.5;" x="425.860078125" xlink:href="#m93b0483c22" y="602.64"/>
      </g>
     </g>
     <g id="line2d_6">
      <g>
       <use style="stroke:#000000;stroke-width:0.5;" x="425.860078125" xlink:href="#m741efc42ff" y="28.76"/>
      </g>
     </g>
     <g id="text_2">
      <!-- 0.5 -->
      <defs>
       <path d="
M10.7969 72.9062
L49.5156 72.9062
L49.5156 64.5938
L19.8281 64.5938
L19.8281 46.7344
Q21.9688 47.4688 24.1094 47.8281
Q26.2656 48.1875 28.4219 48.1875
Q40.625 48.1875 47.75 41.5
Q54.8906 34.8125 54.8906 23.3906
Q54.8906 11.625 47.5625 5.09375
Q40.2344 -1.42188 26.9062 -1.42188
Q22.3125 -1.42188 17.5469 -0.640625
Q12.7969 0.140625 7.71875 1.70312
L7.71875 11.625
Q12.1094 9.23438 16.7969 8.0625
Q21.4844 6.89062 26.7031 6.89062
Q35.1562 6.89062 40.0781 11.3281
Q45.0156 15.7656 45.0156 23.3906
Q45.0156 31 40.0781 35.4375
Q35.1562 39.8906 26.7031 39.8906
Q22.75 39.8906 18.8125 39.0156
Q14.8906 38.1406 10.7969 36.2812
z
" id="BitstreamVeraSans-Roman-35"/>
      </defs>
      <g transform="translate(417.237890625 615.758125)scale(0.12 -0.12)">
       <use xlink:href="#BitstreamVeraSans-Roman-30"/>
       <use x="63.623046875" xlink:href="#BitstreamVeraSans-Roman-2e"/>
       <use x="95.41015625" xlink:href="#BitstreamVeraSans-Roman-35"/>
      </g>
     </g>
    </g>
    <g id="xtick_3">
     <g id="line2d_7">
      <g>
       <use style="stroke:#000000;stroke-width:0.5;" x="660.68046875" xlink:href="#m93b0483c22" y="602.64"/>
      </g>
     </g>
     <g id="line2d_8">
      <g>
       <use style="stroke:#000000;stroke-width:0.5;" x="660.68046875" xlink:href="#m741efc42ff" y="28.76"/>
      </g>
     </g>
     <g id="text_3">
      <!-- 1.0 -->
      <defs>
       <path d="
M12.4062 8.29688
L28.5156 8.29688
L28.5156 63.9219
L10.9844 60.4062
L10.9844 69.3906
L28.4219 72.9062
L38.2812 72.9062
L38.2812 8.29688
L54.3906 8.29688
L54.3906 0
L12.4062 0
z
" id="BitstreamVeraSans-Roman-31"/>
      </defs>
      <g transform="translate(652.19609375 615.758125)scale(0.12 -0.12)">
       <use xlink:href="#BitstreamVeraSans-Roman-31"/>
       <use x="63.623046875" xlink:href="#BitstreamVeraSans-Roman-2e"/>
       <use x="95.41015625" xlink:href="#BitstreamVeraSans-Roman-30"/>
      </g>
     </g>
    </g>
    <g id="xtick_4">
     <g id="line2d_9">
      <g>
       <use style="stroke:#000000;stroke-width:0.5;" x="895.500859375" xlink:href="#m93b0483c22" y="602.64"/>
      </g>
     </g>
     <g id="line2d_10">
      <g>
       <use style="stroke:#000000;stroke-width:0.5;" x="895.500859375" xlink:href="#m741efc42ff" y="28.76"/>
      </g>
     </g>
     <g id="text_4">
      <!-- 1.5 -->
      <g transform="translate(887.142109375 615.758125)scale(0.12 -0.12)">
       <use xlink:href="#BitstreamVeraSans-Roman-31"/>
       <use x="63.623046875" xlink:href="#BitstreamVeraSans-Roman-2e"/>
       <use x="95.41015625" xlink:href="#BitstreamVeraSans-Roman-35"/>
      </g>
     </g>
    </g>
    <g id="xtick_5">
     <g id="line2d_11">
      <g>
       <use style="stroke:#000000;stroke-width:0.5;" x="1130.32125" xlink:href="#m93b0483c22" y="602.64"/>
      </g>
     </g>
     <g id="line2d_12">
      <g>
       <use style="stroke:#000000;stroke-width:0.5;" x="1130.32125" xlink:href="#m741efc42ff" y="28.76"/>
      </g>
     </g>
     <g id="text_5">
      <!-- 2.0 -->
      <defs>
       <path d="
M19.1875 8.29688
L53.6094 8.29688
L53.6094 0
L7.32812 0
L7.32812 8.29688
Q12.9375 14.1094 22.625 23.8906
Q32.3281 33.6875 34.8125 36.5312
Q39.5469 41.8438 41.4219 45.5312
Q43.3125 49.2188 43.3125 52.7812
Q43.3125 58.5938 39.2344 62.25
Q35.1562 65.9219 28.6094 65.9219
Q23.9688 65.9219 18.8125 64.3125
Q13.6719 62.7031 7.8125 59.4219
L7.8125 69.3906
Q13.7656 71.7812 18.9375 73
Q24.125 74.2188 28.4219 74.2188
Q39.75 74.2188 46.4844 68.5469
Q53.2188 62.8906 53.2188 53.4219
Q53.2188 48.9219 51.5312 44.8906
Q49.8594 40.875 45.4062 35.4062
Q44.1875 33.9844 37.6406 27.2188
Q31.1094 20.4531 19.1875 8.29688" id="BitstreamVeraSans-Roman-32"/>
      </defs>
      <g transform="translate(1121.6175 615.758125)scale(0.12 -0.12)">
       <use xlink:href="#BitstreamVeraSans-Roman-32"/>
       <use x="63.623046875" xlink:href="#BitstreamVeraSans-Roman-2e"/>
       <use x="95.41015625" xlink:href="#BitstreamVeraSans-Roman-30"/>
      </g>
     </g>
    </g>
    <g id="text_6">
     <!-- Performance / ops/s -->
     <defs>
      <path id="BitstreamVeraSans-Roman-20"/>
      <path d="
M54.8906 33.0156
L54.8906 0
L45.9062 0
L45.9062 32.7188
Q45.9062 40.4844 42.875 44.3281
Q39.8438 48.1875 33.7969 48.1875
Q26.5156 48.1875 22.3125 43.5469
Q18.1094 38.9219 18.1094 30.9062
L18.1094 0
L9.07812 0
L9.07812 54.6875
L18.1094 54.6875
L18.1094 46.1875
Q21.3438 51.125 25.7031 53.5625
Q30.0781 56 35.7969 56
Q45.2188 56 50.0469 50.1719
Q54.8906 44.3438 54.8906 33.0156" id="BitstreamVeraSans-Roman-6e"/>
      <path d="
M52 44.1875
Q55.375 50.25 60.0625 53.125
Q64.75 56 71.0938 56
Q79.6406 56 84.2812 50.0156
Q88.9219 44.0469 88.9219 33.0156
L88.9219 0
L79.8906 0
L79.8906 32.7188
Q79.8906 40.5781 77.0938 44.375
Q74.3125 48.1875 68.6094 48.1875
Q61.625 48.1875 57.5625 43.5469
Q53.5156 38.9219 53.5156 30.9062
L53.5156 0
L44.4844 0
L44.4844 32.7188
Q44.4844 40.625 41.7031 44.4062
Q38.9219 48.1875 33.1094 48.1875
Q26.2188 48.1875 22.1562 43.5312
Q18.1094 38.875 18.1094 30.9062
L18.1094 0
L9.07812 0
L9.07812 54.6875
L18.1094 54.6875
L18.1094 46.1875
Q21.1875 51.2188 25.4844 53.6094
Q29.7812 56 35.6875 56
Q41.6562 56 45.8281 52.9688
Q50 49.9531 52 44.1875" id="BitstreamVeraSans-Roman-6d"/>
      <path d="
M30.6094 48.3906
Q23.3906 48.3906 19.1875 42.75
Q14.9844 37.1094 14.9844 27.2969
Q14.9844 17.4844 19.1562 11.8438
Q23.3438 6.20312 30.6094 6.20312
Q37.7969 6.20312 41.9844 11.8594
Q46.1875 17.5312 46.1875 27.2969
Q46.1875 37.0156 41.9844 42.7031
Q37.7969 48.3906 30.6094 48.3906
M30.6094 56
Q42.3281 56 49.0156 48.375
Q55.7188 40.7656 55.7188 27.2969
Q55.7188 13.875 49.0156 6.21875
Q42.3281 -1.42188 30.6094 -1.42188
Q18.8438 -1.42188 12.1719 6.21875
Q5.51562 13.875 5.51562 27.2969
Q5.51562 40.7656 12.1719 48.375
Q18.8438 56 30.6094 56" id="BitstreamVeraSans-Roman-6f"/>
      <path d="
M19.6719 64.7969
L19.6719 37.4062
L32.0781 37.4062
Q38.9688 37.4062 42.7188 40.9688
Q46.4844 44.5312 46.4844 51.125
Q46.4844 57.6719 42.7188 61.2344
Q38.9688 64.7969 32.0781 64.7969
z

M9.8125 72.9062
L32.0781 72.9062
Q44.3438 72.9062 50.6094 67.3594
Q56.8906 61.8125 56.8906 51.125
Q56.8906 40.3281 50.6094 34.8125
Q44.3438 29.2969 32.0781 29.2969
L19.6719 29.2969
L19.6719 0
L9.8125 0
z
" id="BitstreamVeraSans-Roman-50"/>
      <path d="
M18.1094 8.20312
L18.1094 -20.7969
L9.07812 -20.7969
L9.07812 54.6875
L18.1094 54.6875
L18.1094 46.3906
Q20.9531 51.2656 25.2656 53.625
Q29.5938 56 35.5938 56
Q45.5625 56 51.7812 48.0938
Q58.0156 40.1875 58.0156 27.2969
Q58.0156 14.4062 51.7812 6.48438
Q45.5625 -1.42188 35.5938 -1.42188
Q29.5938 -1.42188 25.2656 0.953125
Q20.9531 3.32812 18.1094 8.20312
M48.6875 27.2969
Q48.6875 37.2031 44.6094 42.8438
Q40.5312 48.4844 33.4062 48.4844
Q26.2656 48.4844 22.1875 42.8438
Q18.1094 37.2031 18.1094 27.2969
Q18.1094 17.3906 22.1875 11.75
Q26.2656 6.10938 33.4062 6.10938
Q40.5312 6.10938 44.6094 11.75
Q48.6875 17.3906 48.6875 27.2969" id="BitstreamVeraSans-Roman-70"/>
      <path d="
M25.3906 72.9062
L33.6875 72.9062
L8.29688 -9.28125
L0 -9.28125
z
" id="BitstreamVeraSans-Roman-2f"/>
      <path d="
M56.2031 29.5938
L56.2031 25.2031
L14.8906 25.2031
Q15.4844 15.9219 20.4844 11.0625
Q25.4844 6.20312 34.4219 6.20312
Q39.5938 6.20312 44.4531 7.46875
Q49.3125 8.73438 54.1094 11.2812
L54.1094 2.78125
Q49.2656 0.734375 44.1875 -0.34375
Q39.1094 -1.42188 33.8906 -1.42188
Q20.7969 -1.42188 13.1562 6.1875
Q5.51562 13.8125 5.51562 26.8125
Q5.51562 40.2344 12.7656 48.1094
Q20.0156 56 32.3281 56
Q43.3594 56 49.7812 48.8906
Q56.2031 41.7969 56.2031 29.5938
M47.2188 32.2344
Q47.125 39.5938 43.0938 43.9844
Q39.0625 48.3906 32.4219 48.3906
Q24.9062 48.3906 20.3906 44.1406
Q15.875 39.8906 15.1875 32.1719
z
" id="BitstreamVeraSans-Roman-65"/>
      <path d="
M34.2812 27.4844
Q23.3906 27.4844 19.1875 25
Q14.9844 22.5156 14.9844 16.5
Q14.9844 11.7188 18.1406 8.90625
Q21.2969 6.10938 26.7031 6.10938
Q34.1875 6.10938 38.7031 11.4062
Q43.2188 16.7031 43.2188 25.4844
L43.2188 27.4844
z

M52.2031 31.2031
L52.2031 0
L43.2188 0
L43.2188 8.29688
Q40.1406 3.32812 35.5469 0.953125
Q30.9531 -1.42188 24.3125 -1.42188
Q15.9219 -1.42188 10.9531 3.29688
Q6 8.01562 6 15.9219
Q6 25.1406 12.1719 29.8281
Q18.3594 34.5156 30.6094 34.5156
L43.2188 34.5156
L43.2188 35.4062
Q43.2188 41.6094 39.1406 45
Q35.0625 48.3906 27.6875 48.3906
Q23 48.3906 18.5469 47.2656
Q14.1094 46.1406 10.0156 43.8906
L10.0156 52.2031
Q14.9375 54.1094 19.5781 55.0469
Q24.2188 56 28.6094 56
Q40.4844 56 46.3438 49.8438
Q52.2031 43.7031 52.2031 31.2031" id="BitstreamVeraSans-Roman-61"/>
      <path d="
M37.1094 75.9844
L37.1094 68.5
L28.5156 68.5
Q23.6875 68.5 21.7969 66.5469
Q19.9219 64.5938 19.9219 59.5156
L19.9219 54.6875
L34.7188 54.6875
L34.7188 47.7031
L19.9219 47.7031
L19.9219 0
L10.8906 0
L10.8906 47.7031
L2.29688 47.7031
L2.29688 54.6875
L10.8906 54.6875
L10.8906 58.5
Q10.8906 67.625 15.1406 71.7969
Q19.3906 75.9844 28.6094 75.9844
z
" id="BitstreamVeraSans-Roman-66"/>
      <path d="
M41.1094 46.2969
Q39.5938 47.1719 37.8125 47.5781
Q36.0312 48 33.8906 48
Q26.2656 48 22.1875 43.0469
Q18.1094 38.0938 18.1094 28.8125
L18.1094 0
L9.07812 0
L9.07812 54.6875
L18.1094 54.6875
L18.1094 46.1875
Q20.9531 51.1719 25.4844 53.5781
Q30.0312 56 36.5312 56
Q37.4531 56 38.5781 55.875
Q39.7031 55.7656 41.0625 55.5156
z
" id="BitstreamVeraSans-Roman-72"/>
      <path d="
M44.2812 53.0781
L44.2812 44.5781
Q40.4844 46.5312 36.375 47.5
Q32.2812 48.4844 27.875 48.4844
Q21.1875 48.4844 17.8438 46.4375
Q14.5 44.3906 14.5 40.2812
Q14.5 37.1562 16.8906 35.375
Q19.2812 33.5938 26.5156 31.9844
L29.5938 31.2969
Q39.1562 29.25 43.1875 25.5156
Q47.2188 21.7812 47.2188 15.0938
Q47.2188 7.46875 41.1875 3.01562
Q35.1562 -1.42188 24.6094 -1.42188
Q20.2188 -1.42188 15.4531 -0.5625
Q10.6875 0.296875 5.42188 2
L5.42188 11.2812
Q10.4062 8.6875 15.2344 7.39062
Q20.0625 6.10938 24.8125 6.10938
Q31.1562 6.10938 34.5625 8.28125
Q37.9844 10.4531 37.9844 14.4062
Q37.9844 18.0625 35.5156 20.0156
Q33.0625 21.9688 24.7031 23.7812
L21.5781 24.5156
Q13.2344 26.2656 9.51562 29.9062
Q5.8125 33.5469 5.8125 39.8906
Q5.8125 47.6094 11.2812 51.7969
Q16.75 56 26.8125 56
Q31.7812 56 36.1719 55.2656
Q40.5781 54.5469 44.2812 53.0781" id="BitstreamVeraSans-Roman-73"/>
      <path d="
M48.7812 52.5938
L48.7812 44.1875
Q44.9688 46.2969 41.1406 47.3438
Q37.3125 48.3906 33.4062 48.3906
Q24.6562 48.3906 19.8125 42.8438
Q14.9844 37.3125 14.9844 27.2969
Q14.9844 17.2812 19.8125 11.7344
Q24.6562 6.20312 33.4062 6.20312
Q37.3125 6.20312 41.1406 7.25
Q44.9688 8.29688 48.7812 10.4062
L48.7812 2.09375
Q45.0156 0.34375 40.9844 -0.53125
Q36.9688 -1.42188 32.4219 -1.42188
Q20.0625 -1.42188 12.7812 6.34375
Q5.51562 14.1094 5.51562 27.2969
Q5.51562 40.6719 12.8594 48.3281
Q20.2188 56 33.0156 56
Q37.1562 56 41.1094 55.1406
Q45.0625 54.2969 48.7812 52.5938" id="BitstreamVeraSans-Roman-63"/>
     </defs>
     <g transform="translate(601.36671875 632.371875)scale(0.12 -0.12)">
      <use xlink:href="#BitstreamVeraSans-Roman-50"/>
      <use x="56.677734375" xlink:href="#BitstreamVeraSans-Roman-65"/>
      <use x="118.201171875" xlink:href="#BitstreamVeraSans-Roman-72"/>
      <use x="159.314453125" xlink:href="#BitstreamVeraSans-Roman-66"/>
      <use x="194.51953125" xlink:href="#BitstreamVeraSans-Roman-6f"/>
      <use x="255.701171875" xlink:href="#BitstreamVeraSans-Roman-72"/>
      <use x="295.064453125" xlink:href="#BitstreamVeraSans-Roman-6d"/>
      <use x="392.4765625" xlink:href="#BitstreamVeraSans-Roman-61"/>
      <use x="453.755859375" xlink:href="#BitstreamVeraSans-Roman-6e"/>
      <use x="517.134765625" xlink:href="#BitstreamVeraSans-Roman-63"/>
      <use x="572.115234375" xlink:href="#BitstreamVeraSans-Roman-65"/>
      <use x="633.638671875" xlink:href="#BitstreamVeraSans-Roman-20"/>
      <use x="665.42578125" xlink:href="#BitstreamVeraSans-Roman-2f"/>
      <use x="699.1171875" xlink:href="#BitstreamVeraSans-Roman-20"/>
      <use x="730.904296875" xlink:href="#BitstreamVeraSans-Roman-6f"/>
      <use x="792.0859375" xlink:href="#BitstreamVeraSans-Roman-70"/>
      <use x="855.5625" xlink:href="#BitstreamVeraSans-Roman-73"/>
      <use x="907.662109375" xlink:href="#BitstreamVeraSans-Roman-2f"/>
      <use x="941.353515625" xlink:href="#BitstreamVeraSans-Roman-73"/>
     </g>
    </g>
    <g id="text_7">
     <!-- 1e8 -->
     <defs>
      <path d="
M31.7812 34.625
Q24.75 34.625 20.7188 30.8594
Q16.7031 27.0938 16.7031 20.5156
Q16.7031 13.9219 20.7188 10.1562
Q24.75 6.39062 31.7812 6.39062
Q38.8125 6.39062 42.8594 10.1719
Q46.9219 13.9688 46.9219 20.5156
Q46.9219 27.0938 42.8906 30.8594
Q38.875 34.625 31.7812 34.625
M21.9219 38.8125
Q15.5781 40.375 12.0312 44.7188
Q8.5 49.0781 8.5 55.3281
Q8.5 64.0625 14.7188 69.1406
Q20.9531 74.2188 31.7812 74.2188
Q42.6719 74.2188 48.875 69.1406
Q55.0781 64.0625 55.0781 55.3281
Q55.0781 49.0781 51.5312 44.7188
Q48 40.375 41.7031 38.8125
Q48.8281 37.1562 52.7969 32.3125
Q56.7812 27.4844 56.7812 20.5156
Q56.7812 9.90625 50.3125 4.23438
Q43.8438 -1.42188 31.7812 -1.42188
Q19.7344 -1.42188 13.25 4.23438
Q6.78125 9.90625 6.78125 20.5156
Q6.78125 27.4844 10.7812 32.3125
Q14.7969 37.1562 21.9219 38.8125
M18.3125 54.3906
Q18.3125 48.7344 21.8438 45.5625
Q25.3906 42.3906 31.7812 42.3906
Q38.1406 42.3906 41.7188 45.5625
Q45.3125 48.7344 45.3125 54.3906
Q45.3125 60.0625 41.7188 63.2344
Q38.1406 66.4062 31.7812 66.4062
Q25.3906 66.4062 21.8438 63.2344
Q18.3125 60.0625 18.3125 54.3906" id="BitstreamVeraSans-Roman-38"/>
     </defs>
     <g transform="translate(1109.806875 630.371875)scale(0.12 -0.12)">
      <use xlink:href="#BitstreamVeraSans-Roman-31"/>
      <use x="63.623046875" xlink:href="#BitstreamVeraSans-Roman-65"/>
      <use x="125.146484375" xlink:href="#BitstreamVeraSans-Roman-38"/>
     </g>
    </g>
   </g>
   <g id="matplotlib.axis_2">
    <g id="ytick_1">
     <g id="line2d_13">
      <defs>
       <path d="
M0 0
L4 0" id="m728421d6d4" style="stroke:#000000;stroke-width:0.5;"/>
      </defs>
      <g>
       <use style="stroke:#000000;stroke-width:0.5;" x="191.0396875" xlink:href="#m728421d6d4" y="100.495"/>
      </g>
     </g>
     <g id="line2d_14">
      <defs>
       <path d="
M0 0
L-4 0" id="mcb0005524f" style="stroke:#000000;stroke-width:0.5;"/>
      </defs>
      <g>
       <use style="stroke:#000000;stroke-width:0.5;" x="1130.32125" xlink:href="#mcb0005524f" y="100.495"/>
      </g>
     </g>
     <g id="text_8">
      <!-- strings.JavaStrings.baseline -->
      <defs>
       <path d="
M9.8125 72.9062
L19.6719 72.9062
L19.6719 5.07812
Q19.6719 -8.10938 14.6719 -14.0625
Q9.67188 -20.0156 -1.42188 -20.0156
L-5.17188 -20.0156
L-5.17188 -11.7188
L-2.09375 -11.7188
Q4.4375 -11.7188 7.125 -8.04688
Q9.8125 -4.39062 9.8125 5.07812
z
" id="BitstreamVeraSans-Roman-4a"/>
       <path d="
M9.42188 75.9844
L18.4062 75.9844
L18.4062 0
L9.42188 0
z
" id="BitstreamVeraSans-Roman-6c"/>
       <path d="
M53.5156 70.5156
L53.5156 60.8906
Q47.9062 63.5781 42.9219 64.8906
Q37.9375 66.2188 33.2969 66.2188
Q25.25 66.2188 20.875 63.0938
Q16.5 59.9688 16.5 54.2031
Q16.5 49.3594 19.4062 46.8906
Q22.3125 44.4375 30.4219 42.9219
L36.375 41.7031
Q47.4062 39.5938 52.6562 34.2969
Q57.9062 29 57.9062 20.125
Q57.9062 9.51562 50.7969 4.04688
Q43.7031 -1.42188 29.9844 -1.42188
Q24.8125 -1.42188 18.9688 -0.25
Q13.1406 0.921875 6.89062 3.21875
L6.89062 13.375
Q12.8906 10.0156 18.6562 8.29688
Q24.4219 6.59375 29.9844 6.59375
Q38.4219 6.59375 43.0156 9.90625
Q47.6094 13.2344 47.6094 19.3906
Q47.6094 24.75 44.3125 27.7812
Q41.0156 30.8125 33.5 32.3281
L27.4844 33.5
Q16.4531 35.6875 11.5156 40.375
Q6.59375 45.0625 6.59375 53.4219
Q6.59375 63.0938 13.4062 68.6562
Q20.2188 74.2188 32.1719 74.2188
Q37.3125 74.2188 42.625 73.2812
Q47.9531 72.3594 53.5156 70.5156" id="BitstreamVeraSans-Roman-53"/>
       <path d="
M9.42188 54.6875
L18.4062 54.6875
L18.4062 0
L9.42188 0
z

M9.42188 75.9844
L18.4062 75.9844
L18.4062 64.5938
L9.42188 64.5938
z
" id="BitstreamVeraSans-Roman-69"/>
       <path d="
M2.98438 54.6875
L12.5 54.6875
L29.5938 8.79688
L46.6875 54.6875
L56.2031 54.6875
L35.6875 0
L23.4844 0
z
" id="BitstreamVeraSans-Roman-76"/>
       <path d="
M18.3125 70.2188
L18.3125 54.6875
L36.8125 54.6875
L36.8125 47.7031
L18.3125 47.7031
L18.3125 18.0156
Q18.3125 11.3281 20.1406 9.42188
Q21.9688 7.51562 27.5938 7.51562
L36.8125 7.51562
L36.8125 0
L27.5938 0
Q17.1875 0 13.2344 3.875
Q9.28125 7.76562 9.28125 18.0156
L9.28125 47.7031
L2.6875 47.7031
L2.6875 54.6875
L9.28125 54.6875
L9.28125 70.2188
z
" id="BitstreamVeraSans-Roman-74"/>
       <path d="
M45.4062 27.9844
Q45.4062 37.75 41.375 43.1094
Q37.3594 48.4844 30.0781 48.4844
Q22.8594 48.4844 18.8281 43.1094
Q14.7969 37.75 14.7969 27.9844
Q14.7969 18.2656 18.8281 12.8906
Q22.8594 7.51562 30.0781 7.51562
Q37.3594 7.51562 41.375 12.8906
Q45.4062 18.2656 45.4062 27.9844
M54.3906 6.78125
Q54.3906 -7.17188 48.1875 -13.9844
Q42 -20.7969 29.2031 -20.7969
Q24.4688 -20.7969 20.2656 -20.0938
Q16.0625 -19.3906 12.1094 -17.9219
L12.1094 -9.1875
Q16.0625 -11.3281 19.9219 -12.3438
Q23.7812 -13.375 27.7812 -13.375
Q36.625 -13.375 41.0156 -8.76562
Q45.4062 -4.15625 45.4062 5.17188
L45.4062 9.625
Q42.625 4.78125 38.2812 2.39062
Q33.9375 0 27.875 0
Q17.8281 0 11.6719 7.65625
Q5.51562 15.3281 5.51562 27.9844
Q5.51562 40.6719 11.6719 48.3281
Q17.8281 56 27.875 56
Q33.9375 56 38.2812 53.6094
Q42.625 51.2188 45.4062 46.3906
L45.4062 54.6875
L54.3906 54.6875
z
" id="BitstreamVeraSans-Roman-67"/>
       <path d="
M48.6875 27.2969
Q48.6875 37.2031 44.6094 42.8438
Q40.5312 48.4844 33.4062 48.4844
Q26.2656 48.4844 22.1875 42.8438
Q18.1094 37.2031 18.1094 27.2969
Q18.1094 17.3906 22.1875 11.75
Q26.2656 6.10938 33.4062 6.10938
Q40.5312 6.10938 44.6094 11.75
Q48.6875 17.3906 48.6875 27.2969
M18.1094 46.3906
Q20.9531 51.2656 25.2656 53.625
Q29.5938 56 35.5938 56
Q45.5625 56 51.7812 48.0938
Q58.0156 40.1875 58.0156 27.2969
Q58.0156 14.4062 51.7812 6.48438
Q45.5625 -1.42188 35.5938 -1.42188
Q29.5938 -1.42188 25.2656 0.953125
Q20.9531 3.32812 18.1094 8.20312
L18.1094 0
L9.07812 0
L9.07812 75.9844
L18.1094 75.9844
z
" id="BitstreamVeraSans-Roman-62"/>
      </defs>
      <g transform="translate(22.3284375 103.80625)scale(0.12 -0.12)">
       <use xlink:href="#BitstreamVeraSans-Roman-73"/>
       <use x="52.099609375" xlink:href="#BitstreamVeraSans-Roman-74"/>
       <use x="91.30859375" xlink:href="#BitstreamVeraSans-Roman-72"/>
       <use x="132.421875" xlink:href="#BitstreamVeraSans-Roman-69"/>
       <use x="160.205078125" xlink:href="#BitstreamVeraSans-Roman-6e"/>
       <use x="223.583984375" xlink:href="#BitstreamVeraSans-Roman-67"/>
       <use x="287.060546875" xlink:href="#BitstreamVeraSans-Roman-73"/>
       <use x="339.16015625" xlink:href="#BitstreamVeraSans-Roman-2e"/>
       <use x="370.947265625" xlink:href="#BitstreamVeraSans-Roman-4a"/>
       <use x="400.439453125" xlink:href="#BitstreamVeraSans-Roman-61"/>
       <use x="461.71875" xlink:href="#BitstreamVeraSans-Roman-76"/>
       <use x="520.8984375" xlink:href="#BitstreamVeraSans-Roman-61"/>
       <use x="582.177734375" xlink:href="#BitstreamVeraSans-Roman-53"/>
       <use x="645.654296875" xlink:href="#BitstreamVeraSans-Roman-74"/>
       <use x="684.86328125" xlink:href="#BitstreamVeraSans-Roman-72"/>
       <use x="725.9765625" xlink:href="#BitstreamVeraSans-Roman-69"/>
       <use x="753.759765625" xlink:href="#BitstreamVeraSans-Roman-6e"/>
       <use x="817.138671875" xlink:href="#BitstreamVeraSans-Roman-67"/>
       <use x="880.615234375" xlink:href="#BitstreamVeraSans-Roman-73"/>
       <use x="932.71484375" xlink:href="#BitstreamVeraSans-Roman-2e"/>
       <use x="964.501953125" xlink:href="#BitstreamVeraSans-Roman-62"/>
       <use x="1027.97851562" xlink:href="#BitstreamVeraSans-Roman-61"/>
       <use x="1089.2578125" xlink:href="#BitstreamVeraSans-Roman-73"/>
       <use x="1141.35742188" xlink:href="#BitstreamVeraSans-Roman-65"/>
       <use x="1202.88085938" xlink:href="#BitstreamVeraSans-Roman-6c"/>
       <use x="1230.6640625" xlink:href="#BitstreamVeraSans-Roman-69"/>
       <use x="1258.44726562" xlink:href="#BitstreamVeraSans-Roman-6e"/>
       <use x="1321.82617188" xlink:href="#BitstreamVeraSans-Roman-65"/>
      </g>
     </g>
    </g>
    <g id="ytick_2">
     <g id="line2d_15">
      <g>
       <use style="stroke:#000000;stroke-width:0.5;" x="191.0396875" xlink:href="#m728421d6d4" y="243.965"/>
      </g>
     </g>
     <g id="line2d_16">
      <g>
       <use style="stroke:#000000;stroke-width:0.5;" x="1130.32125" xlink:href="#mcb0005524f" y="243.965"/>
      </g>
     </g>
     <g id="text_9">
      <!-- strings.JavaStrings.concat -->
      <g transform="translate(32.0371875 247.27625)scale(0.12 -0.12)">
       <use xlink:href="#BitstreamVeraSans-Roman-73"/>
       <use x="52.099609375" xlink:href="#BitstreamVeraSans-Roman-74"/>
       <use x="91.30859375" xlink:href="#BitstreamVeraSans-Roman-72"/>
       <use x="132.421875" xlink:href="#BitstreamVeraSans-Roman-69"/>
       <use x="160.205078125" xlink:href="#BitstreamVeraSans-Roman-6e"/>
       <use x="223.583984375" xlink:href="#BitstreamVeraSans-Roman-67"/>
       <use x="287.060546875" xlink:href="#BitstreamVeraSans-Roman-73"/>
       <use x="339.16015625" xlink:href="#BitstreamVeraSans-Roman-2e"/>
       <use x="370.947265625" xlink:href="#BitstreamVeraSans-Roman-4a"/>
       <use x="400.439453125" xlink:href="#BitstreamVeraSans-Roman-61"/>
       <use x="461.71875" xlink:href="#BitstreamVeraSans-Roman-76"/>
       <use x="520.8984375" xlink:href="#BitstreamVeraSans-Roman-61"/>
       <use x="582.177734375" xlink:href="#BitstreamVeraSans-Roman-53"/>
       <use x="645.654296875" xlink:href="#BitstreamVeraSans-Roman-74"/>
       <use x="684.86328125" xlink:href="#BitstreamVeraSans-Roman-72"/>
       <use x="725.9765625" xlink:href="#BitstreamVeraSans-Roman-69"/>
       <use x="753.759765625" xlink:href="#BitstreamVeraSans-Roman-6e"/>
       <use x="817.138671875" xlink:href="#BitstreamVeraSans-Roman-67"/>
       <use x="880.615234375" xlink:href="#BitstreamVeraSans-Roman-73"/>
       <use x="932.71484375" xlink:href="#BitstreamVeraSans-Roman-2e"/>
       <use x="964.501953125" xlink:href="#BitstreamVeraSans-Roman-63"/>
       <use x="1019.48242188" xlink:href="#BitstreamVeraSans-Roman-6f"/>
       <use x="1080.6640625" xlink:href="#BitstreamVeraSans-Roman-6e"/>
       <use x="1144.04296875" xlink:href="#BitstreamVeraSans-Roman-63"/>
       <use x="1199.0234375" xlink:href="#BitstreamVeraSans-Roman-61"/>
       <use x="1260.30273438" xlink:href="#BitstreamVeraSans-Roman-74"/>
      </g>
     </g>
    </g>
    <g id="ytick_3">
     <g id="line2d_17">
      <g>
       <use style="stroke:#000000;stroke-width:0.5;" x="191.0396875" xlink:href="#m728421d6d4" y="387.435"/>
      </g>
     </g>
     <g id="line2d_18">
      <g>
       <use style="stroke:#000000;stroke-width:0.5;" x="1130.32125" xlink:href="#mcb0005524f" y="387.435"/>
      </g>
     </g>
     <g id="text_10">
      <!-- strings.KotlinStrings.baseline -->
      <defs>
       <path d="
M9.8125 72.9062
L19.6719 72.9062
L19.6719 42.0938
L52.3906 72.9062
L65.0938 72.9062
L28.9062 38.9219
L67.6719 0
L54.6875 0
L19.6719 35.1094
L19.6719 0
L9.8125 0
z
" id="BitstreamVeraSans-Roman-4b"/>
      </defs>
      <g transform="translate(14.0896875 390.74625)scale(0.12 -0.12)">
       <use xlink:href="#BitstreamVeraSans-Roman-73"/>
       <use x="52.099609375" xlink:href="#BitstreamVeraSans-Roman-74"/>
       <use x="91.30859375" xlink:href="#BitstreamVeraSans-Roman-72"/>
       <use x="132.421875" xlink:href="#BitstreamVeraSans-Roman-69"/>
       <use x="160.205078125" xlink:href="#BitstreamVeraSans-Roman-6e"/>
       <use x="223.583984375" xlink:href="#BitstreamVeraSans-Roman-67"/>
       <use x="287.060546875" xlink:href="#BitstreamVeraSans-Roman-73"/>
       <use x="339.16015625" xlink:href="#BitstreamVeraSans-Roman-2e"/>
       <use x="370.947265625" xlink:href="#BitstreamVeraSans-Roman-4b"/>
       <use x="431.5234375" xlink:href="#BitstreamVeraSans-Roman-6f"/>
       <use x="492.705078125" xlink:href="#BitstreamVeraSans-Roman-74"/>
       <use x="531.9140625" xlink:href="#BitstreamVeraSans-Roman-6c"/>
       <use x="559.697265625" xlink:href="#BitstreamVeraSans-Roman-69"/>
       <use x="587.48046875" xlink:href="#BitstreamVeraSans-Roman-6e"/>
       <use x="650.859375" xlink:href="#BitstreamVeraSans-Roman-53"/>
       <use x="714.3359375" xlink:href="#BitstreamVeraSans-Roman-74"/>
       <use x="753.544921875" xlink:href="#BitstreamVeraSans-Roman-72"/>
       <use x="794.658203125" xlink:href="#BitstreamVeraSans-Roman-69"/>
       <use x="822.44140625" xlink:href="#BitstreamVeraSans-Roman-6e"/>
       <use x="885.8203125" xlink:href="#BitstreamVeraSans-Roman-67"/>
       <use x="949.296875" xlink:href="#BitstreamVeraSans-Roman-73"/>
       <use x="1001.39648438" xlink:href="#BitstreamVeraSans-Roman-2e"/>
       <use x="1033.18359375" xlink:href="#BitstreamVeraSans-Roman-62"/>
       <use x="1096.66015625" xlink:href="#BitstreamVeraSans-Roman-61"/>
       <use x="1157.93945312" xlink:href="#BitstreamVeraSans-Roman-73"/>
       <use x="1210.0390625" xlink:href="#BitstreamVeraSans-Roman-65"/>
       <use x="1271.5625" xlink:href="#BitstreamVeraSans-Roman-6c"/>
       <use x="1299.34570312" xlink:href="#BitstreamVeraSans-Roman-69"/>
       <use x="1327.12890625" xlink:href="#BitstreamVeraSans-Roman-6e"/>
       <use x="1390.5078125" xlink:href="#BitstreamVeraSans-Roman-65"/>
      </g>
     </g>
    </g>
    <g id="ytick_4">
     <g id="line2d_19">
      <g>
       <use style="stroke:#000000;stroke-width:0.5;" x="191.0396875" xlink:href="#m728421d6d4" y="530.905"/>
      </g>
     </g>
     <g id="line2d_20">
      <g>
       <use style="stroke:#000000;stroke-width:0.5;" x="1130.32125" xlink:href="#mcb0005524f" y="530.905"/>
      </g>
     </g>
     <g id="text_11">
      <!-- strings.KotlinStrings.concat -->
      <g transform="translate(23.7984375 534.21625)scale(0.12 -0.12)">
       <use xlink:href="#BitstreamVeraSans-Roman-73"/>
       <use x="52.099609375" xlink:href="#BitstreamVeraSans-Roman-74"/>
       <use x="91.30859375" xlink:href="#BitstreamVeraSans-Roman-72"/>
       <use x="132.421875" xlink:href="#BitstreamVeraSans-Roman-69"/>
       <use x="160.205078125" xlink:href="#BitstreamVeraSans-Roman-6e"/>
       <use x="223.583984375" xlink:href="#BitstreamVeraSans-Roman-67"/>
       <use x="287.060546875" xlink:href="#BitstreamVeraSans-Roman-73"/>
       <use x="339.16015625" xlink:href="#BitstreamVeraSans-Roman-2e"/>
       <use x="370.947265625" xlink:href="#BitstreamVeraSans-Roman-4b"/>
       <use x="431.5234375" xlink:href="#BitstreamVeraSans-Roman-6f"/>
       <use x="492.705078125" xlink:href="#BitstreamVeraSans-Roman-74"/>
       <use x="531.9140625" xlink:href="#BitstreamVeraSans-Roman-6c"/>
       <use x="559.697265625" xlink:href="#BitstreamVeraSans-Roman-69"/>
       <use x="587.48046875" xlink:href="#BitstreamVeraSans-Roman-6e"/>
       <use x="650.859375" xlink:href="#BitstreamVeraSans-Roman-53"/>
       <use x="714.3359375" xlink:href="#BitstreamVeraSans-Roman-74"/>
       <use x="753.544921875" xlink:href="#BitstreamVeraSans-Roman-72"/>
       <use x="794.658203125" xlink:href="#BitstreamVeraSans-Roman-69"/>
       <use x="822.44140625" xlink:href="#BitstreamVeraSans-Roman-6e"/>
       <use x="885.8203125" xlink:href="#BitstreamVeraSans-Roman-67"/>
       <use x="949.296875" xlink:href="#BitstreamVeraSans-Roman-73"/>
       <use x="1001.39648438" xlink:href="#BitstreamVeraSans-Roman-2e"/>
       <use x="1033.18359375" xlink:href="#BitstreamVeraSans-Roman-63"/>
       <use x="1088.1640625" xlink:href="#BitstreamVeraSans-Roman-6f"/>
       <use x="1149.34570312" xlink:href="#BitstreamVeraSans-Roman-6e"/>
       <use x="1212.72460938" xlink:href="#BitstreamVeraSans-Roman-63"/>
       <use x="1267.70507812" xlink:href="#BitstreamVeraSans-Roman-61"/>
       <use x="1328.984375" xlink:href="#BitstreamVeraSans-Roman-74"/>
      </g>
     </g>
    </g>
   </g>
   <g id="patch_7">
    <path d="
M191.04 28.76
L1130.32 28.76" style="fill:none;stroke:#000000;"/>
   </g>
   <g id="patch_8">
    <path d="
M1130.32 602.64
L1130.32 28.76" style="fill:none;stroke:#000000;"/>
   </g>
   <g id="patch_9">
    <path d="
M191.04 602.64
L1130.32 602.64" style="fill:none;stroke:#000000;"/>
   </g>
   <g id="patch_10">
    <path d="
M191.04 602.64
L191.04 28.76" style="fill:none;stroke:#000000;"/>
   </g>
   <g id="text_12">
    <!-- Benchmark -->
    <defs>
     <path d="
M9.07812 75.9844
L18.1094 75.9844
L18.1094 31.1094
L44.9219 54.6875
L56.3906 54.6875
L27.3906 29.1094
L57.625 0
L45.9062 0
L18.1094 26.7031
L18.1094 0
L9.07812 0
z
" id="BitstreamVeraSans-Roman-6b"/>
     <path d="
M19.6719 34.8125
L19.6719 8.10938
L35.5 8.10938
Q43.4531 8.10938 47.2812 11.4062
Q51.125 14.7031 51.125 21.4844
Q51.125 28.3281 47.2812 31.5625
Q43.4531 34.8125 35.5 34.8125
z

M19.6719 64.7969
L19.6719 42.8281
L34.2812 42.8281
Q41.5 42.8281 45.0312 45.5312
Q48.5781 48.25 48.5781 53.8125
Q48.5781 59.3281 45.0312 62.0625
Q41.5 64.7969 34.2812 64.7969
z

M9.8125 72.9062
L35.0156 72.9062
Q46.2969 72.9062 52.3906 68.2188
Q58.5 63.5312 58.5 54.8906
Q58.5 48.1875 55.375 44.2344
Q52.25 40.2812 46.1875 39.3125
Q53.4688 37.75 57.5 32.7812
Q61.5312 27.8281 61.5312 20.4062
Q61.5312 10.6406 54.8906 5.3125
Q48.25 0 35.9844 0
L9.8125 0
z
" id="BitstreamVeraSans-Roman-42"/>
     <path d="
M54.8906 33.0156
L54.8906 0
L45.9062 0
L45.9062 32.7188
Q45.9062 40.4844 42.875 44.3281
Q39.8438 48.1875 33.7969 48.1875
Q26.5156 48.1875 22.3125 43.5469
Q18.1094 38.9219 18.1094 30.9062
L18.1094 0
L9.07812 0
L9.07812 75.9844
L18.1094 75.9844
L18.1094 46.1875
Q21.3438 51.125 25.7031 53.5625
Q30.0781 56 35.7969 56
Q45.2188 56 50.0469 50.1719
Q54.8906 44.3438 54.8906 33.0156" id="BitstreamVeraSans-Roman-68"/>
    </defs>
    <g transform="translate(620.39759375 23.76)scale(0.144 -0.144)">
     <use xlink:href="#BitstreamVeraSans-Roman-42"/>
     <use x="68.603515625" xlink:href="#BitstreamVeraSans-Roman-65"/>
     <use x="130.126953125" xlink:href="#BitstreamVeraSans-Roman-6e"/>
     <use x="193.505859375" xlink:href="#BitstreamVeraSans-Roman-63"/>
     <use x="248.486328125" xlink:href="#BitstreamVeraSans-Roman-68"/>
     <use x="311.865234375" xlink:href="#BitstreamVeraSans-Roman-6d"/>
     <use x="409.27734375" xlink:href="#BitstreamVeraSans-Roman-61"/>
     <use x="470.556640625" xlink:href="#BitstreamVeraSans-Roman-72"/>
     <use x="511.669921875" xlink:href="#BitstreamVeraSans-Roman-6b"/>
    </g>
   </g>
  </g>
 </g>
 <defs>
  <clipPath id="p59af2708ec">
   <rect height="573.88" width="939.2815625" x="191.0396875" y="28.76"/>
  </clipPath>
 </defs>
</svg>
